<svg viewBox="0 0 75 81" fill="none" xmlns="http://www.w3.org/2000/svg">
<path d="M62.8256 25.6683C62.1133 23.9653 61.0593 22.4255 59.7283 21.1432C58.3973 19.8609 56.8173 18.8633 55.0853 18.2117C52.2547 17.1985 49.2808 16.6388 46.2743 16.5532H42.9589C42.5791 16.5532 42.2149 16.4029 41.9464 16.1352C41.6778 15.8676 41.527 15.5046 41.527 15.1262C41.527 14.9405 41.4903 14.7566 41.4189 14.585C41.3476 14.4134 41.2431 14.2575 41.1113 14.1262C40.9796 13.9949 40.8231 13.8907 40.651 13.8196C40.4788 13.7486 40.2943 13.712 40.1079 13.712H36.6893C36.3095 13.712 35.9453 13.5616 35.6768 13.294C35.4082 13.0264 35.2574 12.6634 35.2574 12.285V11.7064C35.2608 11.3302 35.4131 10.9705 35.6813 10.7057C35.9495 10.4408 36.3118 10.2922 36.6893 10.2922H43.6684C43.862 10.2958 44.0542 10.2602 44.2335 10.1876C44.4128 10.1151 44.5755 10.007 44.7118 9.87006C44.848 9.73308 44.955 9.56999 45.0262 9.39065C45.0974 9.21131 45.1315 9.01945 45.1262 8.82664V7.42532C45.1263 7.05343 44.9808 6.69618 44.7206 6.42964C44.4603 6.1631 44.106 6.00833 43.7329 5.99828H36.7538C36.374 5.99828 36.0098 5.84793 35.7413 5.58031C35.4727 5.31269 35.3219 4.94971 35.3219 4.57124V3.42704C35.3236 3.24025 35.2881 3.05497 35.2176 2.88191C35.147 2.70884 35.0428 2.55142 34.9108 2.41874C34.7789 2.28606 34.6219 2.18074 34.4489 2.10886C34.2758 2.03699 34.0903 1.99999 33.9028 2H32.4967C32.3086 2 32.1224 2.03691 31.9487 2.10863C31.775 2.18034 31.6171 2.28546 31.4841 2.41797C31.3511 2.55048 31.2457 2.7078 31.1737 2.88094C31.1018 3.05407 31.0647 3.23964 31.0647 3.42704V4.55838C31.0664 4.74579 31.0311 4.93169 30.9607 5.10547C30.8903 5.27926 30.7862 5.43753 30.6544 5.57124C30.5227 5.70494 30.3658 5.81147 30.1927 5.88475C30.0196 5.95802 29.8337 5.9966 29.6457 5.99828H22.6665C22.289 5.99826 21.9267 6.14684 21.6585 6.41169C21.3903 6.67654 21.238 7.03622 21.2346 7.41246V8.82664C21.2346 9.20512 21.3854 9.56809 21.654 9.83571C21.9225 10.1033 22.2867 10.2537 22.6665 10.2537H29.6457C30.022 10.2537 30.383 10.4027 30.6491 10.6679C30.9152 10.9331 31.0647 11.2928 31.0647 11.6679V12.2464C31.0699 12.4359 31.0371 12.6246 30.9682 12.8014C30.8994 12.9781 30.7959 13.1395 30.6637 13.2759C30.5316 13.4124 30.3736 13.5212 30.1987 13.5961C30.0239 13.6709 29.8359 13.7104 29.6457 13.712H26.227C25.8495 13.712 25.4872 13.8606 25.219 14.1254C24.9509 14.3903 24.7985 14.7499 24.7951 15.1262C24.7951 15.5024 24.646 15.8635 24.3803 16.1307C24.1145 16.398 23.7536 16.5498 23.3761 16.5532H14.1651C13.7876 16.5566 13.4267 16.7084 13.1609 16.9757C12.8952 17.243 12.7461 17.604 12.7461 17.9803V30.3736C12.7659 30.7352 12.9241 31.0754 13.1881 31.3241C13.4521 31.5729 13.8018 31.7112 14.1651 31.7107L46.1711 31.8907C49.0995 31.8907 49.0479 34.0119 49.0479 35.0919C49.0479 35.7989 49.0479 38.2802 49.164 39.8615C49.1708 40.2309 49.3237 40.5827 49.5895 40.8403C49.8552 41.098 50.2123 41.2406 50.5831 41.2371H62.8256C63.1954 41.2407 63.552 41.1003 63.8195 40.8457C64.0869 40.5912 64.2441 40.2427 64.2575 39.8744C64.3478 36.9174 64.4768 29.628 62.8256 25.6683Z" stroke="white" stroke-width="2.2" stroke-miterlimit="10"/>
<path d="M56.8398 44.7339V53.8104" stroke="white" stroke-width="2.2" stroke-miterlimit="10" stroke-linecap="round"/>
<path d="M61.0586 44.7339L67.6507 51.162" stroke="white" stroke-width="2.2" stroke-miterlimit="10" stroke-linecap="round"/>
<path d="M52.7249 44.7339L46.1328 51.162" stroke="white" stroke-width="2.2" stroke-miterlimit="10" stroke-linecap="round"/>
<path d="M31.2711 65.7282C34.4175 67.0705 37.6657 68.1624 40.9851 68.9936C57.6783 72.4648 60.6325 62.7841 49.3317 61.9356C47.0654 61.8032 44.8269 61.3708 42.6751 60.65C40.4949 59.8915 36.7925 57.4359 32.7288 54.6718C30.5873 53.232 28.2524 51.6635 25.0789 51.6763C22.7966 51.6912 20.5733 52.3998 18.7061 53.7076C16.9212 55.0598 14.9594 56.1628 12.8751 56.986L2 61.1385L8.089 73.9947C8.089 73.9947 17.0419 69.9707 20.4992 70.4078C23.3373 70.7678 33.2835 78.5072 40.9077 78.9958C45.7841 79.3043 55.2401 76.2188 61.6903 72.452C68.1405 68.6851 70.2046 66.8081 71.6881 65.3168C75.1841 61.807 73.0943 58.3101 68.9145 59.5443C65.9861 60.4186 55.9238 64.8925 55.9238 64.8925" stroke="white" stroke-width="2.2" stroke-linecap="round" stroke-linejoin="round"/>
</svg>
