<svg width="88" height="57" viewBox="0 0 88 57" fill="none" xmlns="http://www.w3.org/2000/svg">
<path d="M14.4041 7.3291H3.30957V55.9999H14.4041V7.3291Z" stroke="#FF9211" stroke-width="2" stroke-linecap="round" stroke-linejoin="round"/>
<path d="M83.6794 7.3291H72.585V55.9999H83.6794V7.3291Z" stroke="#FF9211" stroke-width="2" stroke-linecap="round" stroke-linejoin="round"/>
<path d="M65.6571 14.6729C62.3159 8.53614 53.6855 4.1582 43.5328 4.1582C33.3802 4.1582 24.7498 8.53614 21.4215 14.6729H14.4424V50.6978H72.6233V14.6729H65.6571Z" stroke="#FF9211" stroke-width="2" stroke-linecap="round" stroke-linejoin="round"/>
<path d="M72.5843 20.5272H63.554C60.2257 14.4033 54.2657 9.98682 44.1131 9.98682C33.9604 9.98682 26.9555 14.4033 23.6271 20.5272H14.4033" stroke="#FF9211" stroke-width="2" stroke-linecap="round" stroke-linejoin="round"/>
<path d="M44.1006 4.1582V50.6978" stroke="#FF9211" stroke-width="2" stroke-linecap="round" stroke-linejoin="round"/>
<path d="M86.0013 1H70.2627V7.32939H86.0013V1Z" stroke="#FF9211" stroke-width="2" stroke-linecap="round" stroke-linejoin="round"/>
<path d="M16.7386 1H1V7.32939H16.7386V1Z" stroke="#FF9211" stroke-width="2" stroke-linecap="round" stroke-linejoin="round"/>
<path d="M15.2041 45.1899H71.1662" stroke="#FF9211" stroke-width="2" stroke-linecap="round" stroke-linejoin="round"/>
<path d="M41.2363 25.2778H38.6562V32.8911H41.2363V25.2778Z" fill="#9F1F00"/>
<path d="M49.4024 25.2778H46.8223V32.8911H49.4024V25.2778Z" fill="#9F1F00"/>
</svg>
