<svg width="48" height="98" viewBox="0 0 48 98" fill="none" xmlns="http://www.w3.org/2000/svg">
<path d="M18.1959 23.3311H13.2551C13.1126 23.3311 12.9971 23.4462 12.9971 23.5882V26.8537C12.9971 26.9957 13.1126 27.1108 13.2551 27.1108H18.1959C18.3384 27.1108 18.454 26.9957 18.454 26.8537V23.5882C18.454 23.4462 18.3384 23.3311 18.1959 23.3311Z" stroke="white" stroke-width="2" stroke-miterlimit="10"/>
<path d="M19.0604 32.2017H29.6646H30.0258C30.0584 32.2053 30.0914 32.202 30.1226 32.192C30.1538 32.182 30.1826 32.1655 30.2069 32.1437C30.2313 32.1218 30.2508 32.0951 30.264 32.0652C30.2773 32.0353 30.284 32.0029 30.2838 31.9702V21.2996C30.2838 21.2314 30.2566 21.166 30.2082 21.1178C30.1598 21.0696 30.0942 21.0425 30.0258 21.0425H18.7121C18.6437 21.0425 18.5781 21.0696 18.5297 21.1178C18.4813 21.166 18.4541 21.2314 18.4541 21.2996V31.9702C18.4539 32.0029 18.4606 32.0353 18.4739 32.0652C18.4871 32.0951 18.5066 32.1218 18.531 32.1437C18.5553 32.1655 18.5841 32.182 18.6153 32.192C18.6465 32.202 18.6795 32.2053 18.7121 32.2017H19.0604Z" stroke="white" stroke-width="2" stroke-miterlimit="10"/>
<path d="M20.2855 38.5912H28.4385C31.4538 38.5993 34.4196 39.3548 37.0689 40.7896V39.864C37.0689 38.8617 36.8706 37.8693 36.4854 36.9435C36.1001 36.0177 35.5355 35.1767 34.8238 34.4686C34.112 33.7605 33.2672 33.1992 32.3375 32.8169C31.4079 32.4345 30.4118 32.2386 29.4061 32.2402H19.3179C18.3129 32.2386 17.3173 32.4346 16.3884 32.8171C15.4595 33.1996 14.6155 33.7611 13.9048 34.4694C13.1941 35.1777 12.6307 36.0188 12.2468 36.9445C11.863 37.8702 11.6663 38.8623 11.668 39.864V40.7896C14.3126 39.3548 17.2743 38.5993 20.2855 38.5912Z" stroke="white" stroke-width="2" stroke-miterlimit="10"/>
<path d="M7.74693 21.3639C9.91284 21.3639 11.6687 19.6141 11.6687 17.4556C11.6687 15.2972 9.91284 13.5474 7.74693 13.5474C5.58101 13.5474 3.8252 15.2972 3.8252 17.4556C3.8252 19.6141 5.58101 21.3639 7.74693 21.3639Z" stroke="white" stroke-width="2" stroke-miterlimit="10"/>
<path d="M19.7956 14.5504C23.5503 14.5504 26.5941 11.5171 26.5941 7.77522C26.5941 4.03337 23.5503 1 19.7956 1C16.0409 1 12.9971 4.03337 12.9971 7.77522C12.9971 11.5171 16.0409 14.5504 19.7956 14.5504Z" stroke="white" stroke-width="2" stroke-miterlimit="10"/>
<path d="M3.81229 9.53645C5.36548 9.53645 6.62459 8.28166 6.62459 6.7338C6.62459 5.18594 5.36548 3.93115 3.81229 3.93115C2.25911 3.93115 1 5.18594 1 6.7338C1 8.28166 2.25911 9.53645 3.81229 9.53645Z" stroke="white" stroke-width="2" stroke-miterlimit="10"/>
<path d="M28.4388 38.5913H20.2858C15.4365 38.5947 10.7869 40.5169 7.35914 43.9353C3.93136 47.3538 2.00586 51.9887 2.00586 56.8214V88.0491C2.00586 90.1767 2.85397 92.2172 4.36361 93.7217C5.87325 95.2262 7.92076 96.0714 10.0557 96.0714H38.6818C40.8157 96.068 42.8612 95.2217 44.3701 93.7179C45.879 92.2142 46.7282 90.1757 46.7317 88.0491V56.8214C46.7317 51.9865 44.8044 47.3496 41.3738 43.9308C37.9432 40.512 33.2904 38.5913 28.4388 38.5913ZM40.7717 83.948C40.7683 84.9255 40.3771 85.862 39.6835 86.5532C38.9899 87.2445 38.0501 87.6343 37.0692 87.6377C36.0871 87.6343 35.146 87.2449 34.4504 86.5541C33.7547 85.8632 33.3607 84.9267 33.3539 83.948V54.5458C33.3573 53.5649 33.7498 52.6251 34.4459 51.9315C35.1419 51.2378 36.0849 50.8466 37.0692 50.8433C38.0513 50.85 38.9911 51.2427 39.6843 51.936C40.3775 52.6292 40.7683 53.5671 40.7717 54.5458V83.948Z" stroke="white" stroke-width="2" stroke-miterlimit="10"/>
</svg>
