<svg viewBox="0 0 74 80" fill="none" xmlns="http://www.w3.org/2000/svg">
<path d="M61.8256 24.6683C61.1133 22.9653 60.0593 21.4255 58.7283 20.1432C57.3973 18.8609 55.8173 17.8633 54.0853 17.2117C51.2547 16.1985 48.2808 15.6388 45.2743 15.5532H41.9589C41.5791 15.5532 41.2149 15.4029 40.9464 15.1352C40.6778 14.8676 40.527 14.5046 40.527 14.1262C40.527 13.9405 40.4903 13.7566 40.4189 13.585C40.3476 13.4134 40.2431 13.2575 40.1113 13.1262C39.9796 12.9949 39.8231 12.8907 39.651 12.8196C39.4788 12.7486 39.2943 12.712 39.1079 12.712H35.6893C35.3095 12.712 34.9453 12.5616 34.6768 12.294C34.4082 12.0264 34.2574 11.6634 34.2574 11.285V10.7064C34.2608 10.3302 34.4131 9.97051 34.6813 9.70566C34.9495 9.44081 35.3118 9.29223 35.6893 9.29225H42.6684C42.862 9.29579 43.0542 9.26021 43.2335 9.18765C43.4128 9.11508 43.5755 9.00705 43.7118 8.87006C43.848 8.73308 43.955 8.56999 44.0262 8.39065C44.0974 8.21131 44.1315 8.01945 44.1262 7.82664V6.42532C44.1263 6.05343 43.9808 5.69618 43.7206 5.42964C43.4603 5.1631 43.106 5.00833 42.7329 4.99828H35.7538C35.374 4.99828 35.0098 4.84793 34.7413 4.58031C34.4727 4.31269 34.3219 3.94971 34.3219 3.57124V2.42704C34.3236 2.24025 34.2881 2.05497 34.2176 1.88191C34.147 1.70884 34.0428 1.55142 33.9108 1.41874C33.7789 1.28606 33.6219 1.18074 33.4489 1.10886C33.2758 1.03699 33.0903 0.999992 32.9028 1H31.4967C31.3086 1 31.1224 1.03691 30.9487 1.10863C30.775 1.18034 30.6171 1.28546 30.4841 1.41797C30.3511 1.55048 30.2457 1.7078 30.1737 1.88094C30.1018 2.05407 30.0647 2.23964 30.0647 2.42704V3.55838C30.0664 3.74579 30.0311 3.93169 29.9607 4.10547C29.8903 4.27926 29.7862 4.43753 29.6544 4.57124C29.5227 4.70494 29.3658 4.81147 29.1927 4.88475C29.0196 4.95802 28.8337 4.9966 28.6457 4.99828H21.6665C21.289 4.99826 20.9267 5.14684 20.6585 5.41169C20.3903 5.67654 20.238 6.03622 20.2346 6.41246V7.82664C20.2346 8.20512 20.3854 8.56809 20.654 8.83571C20.9225 9.10333 21.2867 9.25368 21.6665 9.25368H28.6457C29.022 9.25368 29.383 9.40267 29.6491 9.66788C29.9152 9.93309 30.0647 10.2928 30.0647 10.6679V11.2464C30.0699 11.4359 30.0371 11.6246 29.9682 11.8014C29.8994 11.9781 29.7959 12.1395 29.6637 12.2759C29.5316 12.4124 29.3736 12.5212 29.1987 12.5961C29.0239 12.6709 28.8359 12.7104 28.6457 12.712H25.227C24.8495 12.712 24.4872 12.8606 24.219 13.1254C23.9509 13.3903 23.7985 13.7499 23.7951 14.1262C23.7951 14.5024 23.646 14.8635 23.3803 15.1307C23.1145 15.398 22.7536 15.5498 22.3761 15.5532H13.1651C12.7876 15.5566 12.4267 15.7084 12.1609 15.9757C11.8952 16.243 11.7461 16.604 11.7461 16.9803V29.3736C11.7659 29.7352 11.9241 30.0754 12.1881 30.3241C12.4521 30.5729 12.8018 30.7112 13.1651 30.7107L45.1711 30.8907C48.0995 30.8907 48.0479 33.0119 48.0479 34.0919C48.0479 34.7989 48.0479 37.2802 48.164 38.8615C48.1708 39.2309 48.3237 39.5827 48.5895 39.8403C48.8552 40.098 49.2123 40.2406 49.5831 40.2371H61.8256C62.1954 40.2407 62.552 40.1003 62.8195 39.8457C63.0869 39.5912 63.2441 39.2427 63.2575 38.8744C63.3478 35.9174 63.4768 28.628 61.8256 24.6683Z" stroke="white" stroke-width="2" stroke-miterlimit="10"/>
<path d="M55.8398 43.7339V52.8104" stroke="white" stroke-width="2" stroke-miterlimit="10" stroke-linecap="round"/>
<path d="M60.0586 43.7339L66.6507 50.162" stroke="white" stroke-width="2" stroke-miterlimit="10" stroke-linecap="round"/>
<path d="M51.7249 43.7339L45.1328 50.162" stroke="white" stroke-width="2" stroke-miterlimit="10" stroke-linecap="round"/>
<path d="M30.2711 64.7282C33.4175 66.0705 36.6657 67.1624 39.9851 67.9936C56.6783 71.4648 59.6325 61.7841 48.3317 60.9356C46.0654 60.8032 43.8269 60.3708 41.6751 59.65C39.4949 58.8915 35.7925 56.4359 31.7288 53.6718C29.5873 52.232 27.2524 50.6635 24.0789 50.6763C21.7966 50.6912 19.5733 51.3998 17.7061 52.7076C15.9212 54.0598 13.9594 55.1628 11.8751 55.986L1 60.1385L7.089 72.9947C7.089 72.9947 16.0419 68.9707 19.4992 69.4078C22.3373 69.7678 32.2835 77.5072 39.9077 77.9958C44.7841 78.3043 54.2401 75.2188 60.6903 71.452C67.1405 67.6851 69.2046 65.8081 70.6881 64.3168C74.1841 60.807 72.0943 57.3101 67.9145 58.5443C64.9861 59.4186 54.9238 63.8925 54.9238 63.8925" stroke="white" stroke-width="2" stroke-linecap="round" stroke-linejoin="round"/>
</svg>
