<svg viewBox="0 0 50 99" fill="none" xmlns="http://www.w3.org/2000/svg">
<path d="M21.2855 39.5912H29.4385M21.2855 39.5912C18.2743 39.5993 15.3126 40.3548 12.668 41.7896V40.864C12.6663 39.8623 12.863 38.8702 13.2468 37.9445C13.6307 37.0188 14.1941 36.1777 14.9048 35.4694C15.6155 34.7611 16.4595 34.1996 17.3884 33.8171C18.3173 33.4346 19.3129 33.2386 20.3179 33.2402H30.4061C31.4118 33.2386 32.4079 33.4345 33.3375 33.8169C34.2672 34.1992 35.112 34.7605 35.8238 35.4686C36.5355 36.1767 37.1001 37.0177 37.4854 37.9435C37.8706 38.8693 38.0689 39.8617 38.0689 40.864V41.7896C35.4196 40.3548 32.4538 39.5993 29.4385 39.5912M21.2855 39.5912C16.4362 39.5946 11.7869 41.5169 8.35914 44.9353C4.93136 48.3538 3.00586 52.9887 3.00586 57.8214V89.0491C3.00586 91.1767 3.85397 93.2172 5.36361 94.7217C6.87325 96.2262 8.92076 97.0714 11.0557 97.0714H39.6818C41.8157 97.068 43.8612 96.2217 45.3701 94.7179C46.879 93.2142 47.7282 91.1757 47.7317 89.0491V57.8214C47.7317 52.9865 45.8044 48.3496 42.3738 44.9308C38.9432 41.512 34.2901 39.5912 29.4385 39.5912M14.2551 24.3311H19.1959C19.3384 24.3311 19.454 24.4462 19.454 24.5882V27.8537C19.454 27.9957 19.3384 28.1108 19.1959 28.1108H14.2551C14.1126 28.1108 13.9971 27.9957 13.9971 27.8537V24.5882C13.9971 24.4462 14.1126 24.3311 14.2551 24.3311ZM31.0258 33.2017C31.0584 33.2053 31.0914 33.202 31.1226 33.192C31.1538 33.182 31.1826 33.1656 31.2069 33.1437C31.2313 33.1218 31.2508 33.0951 31.264 33.0652C31.2773 33.0353 31.284 33.0029 31.2838 32.9702V22.2996C31.2838 22.2314 31.2566 22.166 31.2082 22.1178C31.1598 22.0696 31.0942 22.0425 31.0258 22.0425H19.7121C19.6437 22.0425 19.5781 22.0696 19.5297 22.1178C19.4813 22.166 19.4541 22.2314 19.4541 22.2996V32.9702C19.4539 33.0029 19.4606 33.0353 19.4739 33.0652C19.4871 33.0951 19.5066 33.1218 19.531 33.1437C19.5553 33.1656 19.5841 33.182 19.6153 33.192C19.6465 33.202 19.6795 33.2053 19.7121 33.2017H31.0258ZM12.6687 18.4556C12.6687 20.6141 10.9128 22.3639 8.74693 22.3639C6.58101 22.3639 4.8252 20.6141 4.8252 18.4556C4.8252 16.2972 6.58101 14.5474 8.74693 14.5474C10.9128 14.5474 12.6687 16.2972 12.6687 18.4556ZM27.5941 8.77522C27.5941 12.5171 24.5503 15.5504 20.7956 15.5504C17.0409 15.5504 13.9971 12.5171 13.9971 8.77522C13.9971 5.03337 17.0409 2 20.7956 2C24.5503 2 27.5941 5.03337 27.5941 8.77522ZM7.62459 7.7338C7.62459 9.28166 6.36548 10.5365 4.81229 10.5365C3.25911 10.5365 2 9.28166 2 7.7338C2 6.18594 3.25911 4.93115 4.81229 4.93115C6.36548 4.93115 7.62459 6.18594 7.62459 7.7338ZM41.7717 84.948C41.7683 85.9255 41.3771 86.862 40.6835 87.5532C39.9899 88.2445 39.0501 88.6343 38.0692 88.6377C37.0871 88.6343 36.146 88.2449 35.4504 87.5541C34.7547 86.8632 34.3607 85.9267 34.3539 84.948V55.5458C34.3573 54.5649 34.7498 53.6251 35.4459 52.9315C36.1419 52.2378 37.0849 51.8467 38.0692 51.8433C39.0513 51.85 39.9911 52.2427 40.6843 52.936C41.3775 53.6292 41.7683 54.5671 41.7717 55.5458V84.948Z" stroke="white" stroke-width="2.2" stroke-miterlimit="10"/>
</svg>
