<svg viewBox="0 0 42 42" fill="none" xmlns="http://www.w3.org/2000/svg">
<circle cx="21" cy="21" r="20" stroke="white" stroke-width="2"/>
<path d="M19.9411 28.1445H21.1852C21.1852 28.1445 21.5609 28.1024 21.7531 27.8922C21.9296 27.699 21.924 27.3363 21.924 27.3363C21.924 27.3363 21.8996 25.6384 22.6743 25.3883C23.4382 25.1419 24.419 27.0293 25.4584 27.7552C26.2445 28.3042 26.8419 28.1841 26.8419 28.1841L29.6215 28.1445C29.6215 28.1445 31.0755 28.0533 30.3861 26.8905C30.3296 26.7955 29.9844 26.0303 28.3192 24.4582C26.5762 22.8127 26.8098 23.0789 28.9093 20.2326C30.1879 18.4993 30.699 17.4411 30.5393 16.9879C30.3871 16.5562 29.4466 16.6702 29.4466 16.6702L26.317 16.6899C26.317 16.6899 26.0848 16.6577 25.9129 16.7624C25.7446 16.8648 25.6367 17.104 25.6367 17.104C25.6367 17.104 25.1412 18.4452 24.4808 19.586C23.0872 21.9929 22.5299 22.1204 22.3021 21.9707C21.7721 21.6223 21.9045 20.5714 21.9045 19.8247C21.9045 17.492 22.2523 16.5194 21.2271 16.2676C20.887 16.1841 20.6364 16.1289 19.7663 16.1199C18.6495 16.1083 17.7046 16.1233 17.1694 16.39C16.8133 16.5674 16.5386 16.9625 16.706 16.9853C16.9129 17.0133 17.3812 17.1138 17.6296 17.4575C17.9504 17.9014 17.9392 18.898 17.9392 18.898C17.9392 18.898 18.1235 21.644 17.5088 21.985C17.087 22.2189 16.5082 21.7413 15.2657 19.5576C14.6292 18.439 14.1485 17.2025 14.1485 17.2025C14.1485 17.2025 14.0559 16.9714 13.8906 16.8478C13.6901 16.6979 13.4098 16.6504 13.4098 16.6504L10.4357 16.6702C10.4357 16.6702 9.98936 16.6829 9.82535 16.8803C9.67942 17.0561 9.81369 17.4193 9.81369 17.4193C9.81369 17.4193 12.1419 22.96 14.7785 25.7522C17.1962 28.3126 19.9411 28.1445 19.9411 28.1445Z" fill="white"/>
</svg>
