<svg width="72" height="71" viewBox="0 0 72 71" fill="none" xmlns="http://www.w3.org/2000/svg">
<path d="M52.7612 35.5708C57.5194 34.5806 61.8918 31.8543 60.6701 29.2694C60.2458 28.3949 58.4711 28.0734 56.9022 28.1506C53.6516 28.433 50.4299 28.9836 47.27 29.7967C44.7752 30.4654 41.7145 31.4685 40.0813 32.0215V30.2854C41.4019 29.4787 42.5055 28.3619 43.2963 27.0318C43.5363 25.7479 43.3226 24.4204 42.6919 23.2767C42.3018 22.5464 42.1152 21.7247 42.1518 20.8976C42.3061 20.3446 43.4377 19.843 44.5051 19.4058C45.9712 18.7885 47.6301 18.1198 48.1574 16.6923C48.3778 16.055 48.3778 15.3621 48.1574 14.7248C48.099 14.5579 47.977 14.421 47.8179 14.3439C47.6589 14.2668 47.4757 14.2557 47.3086 14.3132C47.1408 14.3743 47.0037 14.4988 46.9268 14.66C46.8498 14.8211 46.8391 15.006 46.8971 15.1749C46.999 15.5146 46.999 15.8768 46.8971 16.2165C46.5756 17.0653 45.1996 17.6568 43.9779 18.1712C42.5504 18.7885 41.1873 19.3672 40.8529 20.5246C40.7095 21.6401 40.9162 22.7725 41.4445 23.7653C41.92 24.6323 42.1175 25.6244 42.0103 26.6074C41.5022 27.403 40.8317 28.0823 40.0427 28.6007C40.0299 28.1069 39.8751 27.6271 39.5969 27.2189C39.3187 26.8107 38.9288 26.4913 38.4738 26.2988C38.6737 25.988 38.7808 25.6266 38.7824 25.2571C38.7696 24.8082 38.6181 24.3744 38.3486 24.0151C38.0792 23.6559 37.7051 23.3889 37.2778 23.2509L36.5191 15.2392L35.7475 23.2124C35.2935 23.3338 34.8907 23.5982 34.5989 23.9665C34.307 24.3348 34.1416 24.7874 34.1271 25.2571C34.1288 25.6266 34.2359 25.988 34.4358 26.2988C33.9998 26.4947 33.625 26.805 33.3511 27.1967C33.0771 27.5883 32.9142 28.0468 32.8797 28.5235C32.1287 28.0292 31.4963 27.3749 31.0279 26.6074C30.9198 25.6244 31.1174 24.632 31.5937 23.7653C32.1346 22.7769 32.342 21.6404 32.1853 20.5246C31.8509 19.3672 30.5006 18.7885 29.0603 18.1712C27.8514 17.6568 26.4883 17.0653 26.1411 16.2165C26.0292 15.8783 26.0292 15.5131 26.1411 15.1749C26.1957 15.0059 26.1834 14.8224 26.1069 14.6621C26.0303 14.5019 25.8953 14.377 25.7295 14.3132C25.5606 14.2553 25.3758 14.266 25.2146 14.3429C25.0535 14.4199 24.929 14.557 24.8679 14.7248C24.6504 15.3626 24.6504 16.0545 24.8679 16.6923C25.3952 18.0812 27.0541 18.7885 28.5073 19.4058C29.5361 19.843 30.7064 20.3446 30.8735 20.8976C30.9406 21.7153 30.7897 22.5362 30.4363 23.2767C29.8089 24.4216 29.5997 25.7494 29.8447 27.0318C30.5802 28.3203 31.6228 29.407 32.8797 30.1953V32.0215C31.2465 31.4685 28.1858 30.4654 25.7038 29.7967C22.5394 28.9844 19.3135 28.4338 16.0588 28.1506C14.4899 28.0734 12.831 28.0091 12.3037 29.2951C11.2363 31.8671 15.4544 34.5806 20.1483 35.5708C22.9833 36.2879 25.907 36.5911 28.8288 36.471C29.0417 36.4375 29.2522 36.3903 29.4589 36.3296C28.8615 36.8006 28.3258 37.345 27.8643 37.9499C27.2283 38.9374 26.6981 39.9891 26.2825 41.0877C25.9133 42.1259 25.4027 43.1083 24.765 44.007C23.7868 44.9228 22.599 45.5851 21.3057 45.936C20.3494 46.2857 19.4244 46.7159 18.5408 47.222C17.5823 47.7916 16.7152 48.5026 15.9688 49.331C15.856 49.4697 15.8022 49.6472 15.819 49.8253C15.8359 50.0033 15.922 50.1675 16.0588 50.2826C16.177 50.3837 16.3277 50.4385 16.4832 50.437C16.5806 50.4382 16.6772 50.4181 16.766 50.3781C16.8549 50.3381 16.9339 50.2792 16.9976 50.2055C17.6406 49.4908 18.386 48.8754 19.2095 48.3794C20.0338 47.9311 20.8941 47.5525 21.7815 47.2477C23.2874 46.8229 24.6625 46.027 25.781 44.9329C26.5178 43.9358 27.1029 42.835 27.5171 41.6664C27.898 40.6598 28.3806 39.6946 28.9574 38.7858C29.6426 37.9843 30.4446 37.2907 31.3365 36.7282C30.5469 37.524 29.9373 38.48 29.549 39.5317C29.2366 40.8559 29.1972 42.2298 29.4332 43.5697C29.6076 44.4918 29.6076 45.4383 29.4332 46.3603C29.0217 47.8264 27.4528 49.2924 24.6107 50.8485C23.598 51.393 22.7833 52.2437 22.2831 53.279C22.2149 53.4427 22.2145 53.6268 22.282 53.7908C22.3495 53.9548 22.4794 54.0853 22.6431 54.1535C22.7278 54.1728 22.8157 54.1728 22.9003 54.1535C23.0324 54.1535 23.1614 54.1144 23.2713 54.0412C23.3811 53.968 23.4668 53.8638 23.5176 53.742C23.9154 52.9841 24.5344 52.3651 25.2923 51.9673C28.5073 50.2183 30.2434 48.5337 30.7707 46.669C30.9833 45.5776 30.9833 44.4554 30.7707 43.364C30.5601 42.2053 30.5819 41.0162 30.835 39.8661C31.2993 38.7762 31.9973 37.8016 32.8797 37.0111V46.9262C32.8797 47.399 32.9728 47.8673 33.1538 48.3041C33.3347 48.741 33.6 49.138 33.9343 49.4723C34.2687 49.8067 34.6657 50.0719 35.1025 50.2529C35.5394 50.4338 36.0076 50.527 36.4805 50.527C36.9534 50.527 37.4216 50.4338 37.8585 50.2529C38.2953 50.0719 38.6923 49.8067 39.0266 49.4723C39.361 49.138 39.6262 48.741 39.8072 48.3041C39.9882 47.8673 40.0813 47.399 40.0813 46.9262V37.0111C40.9649 37.7977 41.6594 38.7736 42.1132 39.8661C42.3662 41.0162 42.388 42.2053 42.1775 43.364C41.9648 44.4554 41.9648 45.5776 42.1775 46.669C42.7047 48.5337 44.4408 50.2183 47.6558 51.9673C48.4119 52.3617 49.0306 52.976 49.4305 53.7291C49.4798 53.852 49.5652 53.9571 49.6754 54.0305C49.7855 54.104 49.9154 54.1424 50.0478 54.1406C50.1326 54.1587 50.2202 54.1587 50.305 54.1406C50.3872 54.1083 50.462 54.0597 50.5249 53.9977C50.5878 53.9358 50.6376 53.8617 50.6712 53.7801C50.7049 53.6984 50.7216 53.6108 50.7206 53.5225C50.7195 53.4342 50.7006 53.347 50.6651 53.2662C50.1649 52.2308 49.3502 51.3801 48.3374 50.8356C45.4953 49.2796 43.9264 47.8135 43.5149 46.3475C43.3406 45.4254 43.3406 44.4789 43.5149 43.5569C43.7509 42.217 43.7116 40.843 43.3992 39.5188C43.0085 38.4577 42.3946 37.4929 41.5988 36.6896C42.499 37.2562 43.3059 37.959 43.9907 38.773C44.57 39.6803 45.0527 40.6458 45.431 41.6536C45.8498 42.8057 46.43 43.8925 47.1543 44.8814C48.2698 45.9728 49.6401 46.7685 51.1409 47.1962C52.029 47.4993 52.8895 47.8779 53.7129 48.3279C54.5372 48.8174 55.2793 49.4337 55.9119 50.154C55.9762 50.2271 56.0553 50.2856 56.1441 50.3255C56.2328 50.3654 56.329 50.3859 56.4263 50.3855C56.5855 50.3857 56.7398 50.3312 56.8636 50.2312C56.9319 50.1743 56.9881 50.1043 57.029 50.0254C57.07 49.9465 57.0948 49.8602 57.1019 49.7716C57.1091 49.683 57.0986 49.5938 57.0709 49.5093C57.0432 49.4249 56.999 49.3467 56.9407 49.2796C56.1933 48.4523 55.3264 47.7415 54.3687 47.1705C53.4819 46.6621 52.5524 46.2319 51.591 45.8845C50.3014 45.5337 49.1179 44.8713 48.1445 43.9555C47.5069 43.0568 46.9963 42.0745 46.627 41.0363C46.2066 39.9398 45.6767 38.8886 45.0452 37.8985C44.5624 37.2866 44.0001 36.7417 43.3734 36.2781C43.5889 36.3388 43.808 36.3861 44.0293 36.4196C46.9657 36.5614 49.9071 36.2755 52.7612 35.5708Z" fill="#9F1F00"/>
<path d="M36.458 70.0005C55.5118 70.0005 70.958 54.5543 70.958 35.5005C70.958 16.4467 55.5118 1.00049 36.458 1.00049C17.4042 1.00049 1.95801 16.4467 1.95801 35.5005C1.95801 54.5543 17.4042 70.0005 36.458 70.0005Z" stroke="#FF9211" stroke-width="2" stroke-miterlimit="10"/>
<path d="M10.5684 12.6797L62.5356 56.738" stroke="#FF9211" stroke-width="2" stroke-miterlimit="10"/>
</svg>
