<svg viewBox="0 0 67 67" fill="none" xmlns="http://www.w3.org/2000/svg">
<circle cx="33.5" cy="33.5" r="31.5" stroke="white" stroke-width="2.2"/>
<path d="M31.6914 44.571H33.5921C33.5921 44.571 34.1661 44.5066 34.4596 44.1852C34.7293 43.8898 34.7207 43.3355 34.7207 43.3355C34.7207 43.3355 34.6835 40.7398 35.867 40.3575C37.0341 39.9808 38.5325 42.8662 40.1206 43.9758C41.3215 44.8151 42.2341 44.6314 42.2341 44.6314L46.4808 44.571C46.4808 44.571 48.7022 44.4315 47.6488 42.6539C47.5626 42.5087 47.0352 41.3389 44.4912 38.9356C41.8282 36.4202 42.1852 36.8271 45.3928 32.476C47.3461 29.8262 48.127 28.2085 47.883 27.5157C47.6505 26.8557 46.2136 27.03 46.2136 27.03L41.4322 27.0601C41.4322 27.0601 41.0776 27.0109 40.8148 27.1709C40.5578 27.3274 40.3929 27.6931 40.3929 27.6931C40.3929 27.6931 39.6358 29.7434 38.6269 31.4874C36.4979 35.1669 35.6464 35.3617 35.2983 35.1329C34.4886 34.6003 34.6909 32.9938 34.6909 31.8522C34.6909 28.2862 35.2224 26.7994 33.6561 26.4145C33.1364 26.2869 32.7536 26.2024 31.4243 26.1886C29.7181 26.171 28.2744 26.194 27.4567 26.6017C26.9128 26.8728 26.4931 27.4768 26.7488 27.5116C27.0649 27.5544 27.7804 27.7082 28.1598 28.2336C28.6499 28.9122 28.6328 30.4357 28.6328 30.4357C28.6328 30.4357 28.9144 34.6335 27.9753 35.1548C27.3309 35.5124 26.4467 34.7823 24.5484 31.444C23.576 29.734 22.8416 27.8437 22.8416 27.8437C22.8416 27.8437 22.7001 27.4905 22.4475 27.3014C22.1411 27.0724 21.713 26.9997 21.713 26.9997L17.1693 27.0299C17.1693 27.0299 16.4873 27.0494 16.2367 27.3512C16.0138 27.6199 16.2189 28.1751 16.2189 28.1751C16.2189 28.1751 19.776 36.6453 23.804 40.9138C27.4977 44.8279 31.6914 44.571 31.6914 44.571Z" fill="white"/>
</svg>
